<?xml version="1.0" encoding="utf-8"?>
<!-- Generator: Adobe Illustrator 27.5.0, SVG Export Plug-In . SVG Version: 6.00 Build 0)  -->
<svg version="1.1" id="E-2-2-3-A案" xmlns="http://www.w3.org/2000/svg" xmlns:xlink="http://www.w3.org/1999/xlink" x="0px"
	 y="0px" viewBox="0 0 380.6 75.7" style="enable-background:new 0 0 380.6 75.7;" xml:space="preserve">
<style type="text/css">
	.st0{fill:#9E9E9F;}
	.st1{fill:#D3759D;}
	.st2{fill:#E8BF28;}
	.st3{fill:#8E8E8F;}
</style>
<g id="RAPPORT">
	<path class="st0" d="M19.3,73.1c-0.1,0.9-0.8,1.5-1.6,1.5c-0.6,0-1.1-0.2-1.4-0.7l-7-10.2H3.4v9.2c0,0.9-0.7,1.6-1.7,1.7
		C0.8,74.6,0,73.9,0,73l0,0V49.4c-0.1-0.9,0.6-1.7,1.4-1.8c0.1,0,0.2,0,0.3,0h9c4.9,0,8.4,3.1,8.4,8.1c0.2,3.9-2.6,7.2-6.4,7.7
		l6.2,8.6C19.2,72.4,19.3,72.8,19.3,73.1z M3.4,60.9h7.1c2.8,0.1,5.2-2.1,5.4-4.9c0.1-2.8-2.1-5.2-4.9-5.4c-0.2,0-0.3,0-0.5,0H3.4
		V60.9z"/>
	<path class="st0" d="M66.5,73V49.4c-0.1-0.9,0.6-1.7,1.4-1.8c0.1,0,0.2,0,0.3,0h9c5.4,0,8.4,3.7,8.4,8.1s-3.1,8.1-8.4,8.1h-7.5V73
		c0,0.9-0.7,1.6-1.7,1.7C67.3,74.7,66.5,73.9,66.5,73L66.5,73z M76.9,50.6h-7.1v10.2h7.1c2.8,0.1,5.2-2.1,5.3-4.9
		c0.1-2.8-2.1-5.2-4.9-5.3C77.2,50.6,77,50.6,76.9,50.6z"/>
	<path class="st0" d="M92.9,73V49.4c-0.1-0.9,0.6-1.7,1.4-1.8c0.1,0,0.2,0,0.3,0h9c5.4,0,8.4,3.7,8.4,8.1s-3.1,8.1-8.4,8.1h-7.5V73
		c0,0.9-0.7,1.6-1.7,1.7C93.6,74.7,92.9,73.9,92.9,73L92.9,73z M103.3,50.6h-7.1v10.2h7.1c2.8,0.1,5.2-2.1,5.3-4.9
		c0.1-2.8-2.1-5.2-4.9-5.3C103.6,50.6,103.4,50.6,103.3,50.6z"/>
	<path class="st0" d="M131.5,47.2c7.9,0,13.3,6,13.3,13.9S139.4,75,131.5,75c-8,0-13.3-6-13.3-13.9S123.5,47.2,131.5,47.2z
		 M131.5,50.1c-6,0-9.9,4.6-9.9,10.9c0,6.2,3.8,10.9,9.9,10.9c6,0,9.9-4.7,9.9-10.9C141.4,54.8,137.5,50.1,131.5,50.1z"/>
	<path class="st0" d="M171.6,73.1c-0.1,0.9-0.8,1.5-1.6,1.5c-0.6,0-1.1-0.2-1.4-0.7l-7-10.2h-5.9v9.2c0,0.9-0.7,1.6-1.7,1.7
		c-0.9,0-1.7-0.7-1.7-1.6l0,0V49.4c-0.1-0.9,0.6-1.7,1.4-1.8c0.1,0,0.2,0,0.3,0h9c4.9,0,8.4,3.1,8.4,8.1c0.2,3.9-2.6,7.2-6.4,7.7
		l6.2,8.6C171.5,72.4,171.6,72.8,171.6,73.1z M155.7,60.9h7.1c2.8,0.1,5.2-2.1,5.4-4.9c0.1-2.8-2.1-5.2-4.9-5.4c-0.2,0-0.3,0-0.5,0
		h-7.1V60.9z"/>
	<path class="st0" d="M185.4,73V50.6h-7.2c-0.8,0-1.5-0.6-1.5-1.5s0.6-1.5,1.5-1.5h0.1H196c0.8,0,1.5,0.7,1.5,1.5s-0.7,1.4-1.5,1.5
		h-7.2V73c0,0.9-0.7,1.6-1.7,1.7C186.2,74.7,185.4,73.9,185.4,73z"/>
	<path class="st1" d="M30.8,73.6c-0.3,0.9-1.1,1.5-2.1,1.4c-1.2,0-2.3-1-2.3-2.2l0,0c0-0.3,0.1-0.6,0.2-0.9l12.2-30.2
		c0.6-1.5,2-2.4,3.6-2.4s3,1,3.6,2.4l12.3,30.2c0.1,0.3,0.1,0.6,0.2,0.8c0,1.2-1,2.3-2.2,2.3c-0.9,0-1.8-0.6-2.1-1.4L42.4,43.3"/>
</g>
<g id="コピー">
	<path d="M79.5,35.5c0.3,2.6,2,4.9,4.4,6c0.1,0,0.2,0.2,0.2,0.3c0,0.2-0.2,0.4-0.4,0.4c-0.7,0-3.7-2.2-4.5-5.3
		c-0.5,2.4-2.1,4.5-4.4,5.4c-0.2,0-0.3-0.1-0.3-0.3c0-0.1,0.1-0.3,0.2-0.3c2.6-1.2,4.3-3.9,4.2-6.8c0-0.4,0-0.8,0-1.1l0,0
		c0-0.2,0.2-0.3,0.3-0.3c0.2,0,0.3,0.1,0.4,0.3l0,0c0,0.4,0,1,0,1.4C79.6,35.3,79.6,35.3,79.5,35.5L79.5,35.5z"/>
	<path d="M87,34.7c-0.1-0.1-0.1-0.2-0.1-0.3c0-0.2,0.2-0.3,0.3-0.3c0.1,0,0.2,0.1,0.3,0.2c0.6,0.9,1.1,1.9,1.4,2.9
		c0.8-0.6,1.6-1,2.5-1.5c0.2,0,0.3,0.1,0.3,0.3l0,0c0,0.2-0.1,0.3-0.3,0.4c-1.5,0.8-4.2,2.2-4.2,3.7c0,1.3,1.9,1.3,2.1,1.3
		c0.7,0,1.3-0.1,2-0.3c0.1,0,0.1,0,0.2,0c0.2,0,0.3,0.1,0.3,0.3l0,0c0,0.2-0.1,0.4-0.3,0.4c-0.7,0.2-1.4,0.3-2.1,0.3
		c-2.3,0-2.8-1.1-2.8-1.9c0.2-1.1,0.8-2,1.8-2.6C88.2,36.5,87.7,35.5,87,34.7z"/>
	<path d="M99.3,35.5c0.3,2.6,2,4.9,4.4,6c0.1,0,0.2,0.2,0.2,0.3c0,0.2-0.2,0.4-0.4,0.4l0,0c-0.7,0-3.7-2.2-4.5-5.3
		c-0.5,2.4-2.1,4.5-4.4,5.4c-0.2,0-0.3-0.1-0.3-0.3c0-0.1,0.1-0.3,0.2-0.3c2.6-1.2,4.3-3.9,4.2-6.8c0-0.4,0-0.8,0-1.1l0,0
		c0-0.2,0.2-0.3,0.3-0.3c0.2,0,0.3,0.1,0.4,0.3l0,0c0,0.4,0,1,0,1.4C99.4,35.3,99.4,35.3,99.3,35.5L99.3,35.5z"/>
	<path d="M108.4,35.4c-0.2,0-0.5,0.1-0.7,0.1c-0.6,0-1.1-0.2-1.1-0.5c0-0.1,0.1-0.3,0.3-0.3l0,0c0.1,0,0.2,0,0.3,0.1
		c0.2,0.1,0.4,0.1,0.6,0.1c0.3,0,0.6,0,0.9-0.1c0.1-0.4,0.2-0.8,0.2-1.2c0-0.2,0.2-0.3,0.3-0.3c0.2,0,0.3,0.1,0.3,0.3l0,0
		c0,0.3-0.1,0.7-0.2,1c0.3-0.1,0.7-0.2,1-0.4c0.1,0,0.1-0.1,0.2-0.1c0.2,0,0.3,0.1,0.3,0.3c0,0.3-0.7,0.5-1.7,0.8
		c-0.2,0.6-0.5,1.1-0.8,1.6c0.3-0.1,0.6-0.2,0.8-0.2c0.7,0,1.3,0.5,1.3,1.2c0.5-0.3,1.1-0.5,1.6-0.8c0.3-0.1,0.6-0.3,0.9-0.4
		c0.1,0,0.2-0.1,0.3-0.1c0.2,0,0.3,0.1,0.3,0.3c0,0.1-0.1,0.3-0.2,0.3c-0.3,0.1-0.5,0.2-1.1,0.4s-1.2,0.5-1.7,0.8c0,0.3,0,0.6,0,0.9
		c0,0.6,0,0.9-0.4,0.9c-0.1,0-0.3-0.1-0.3-0.3l0,0l0,0c0-0.3,0-0.6,0-0.9v-0.3c-0.7,0.4-1.7,1.1-1.7,1.8c0,0.2,0.2,1,1.6,1
		c0.5,0,1.1-0.1,1.6-0.2c0.1,0,0.1,0,0.2,0c0.2,0,0.3,0.1,0.3,0.3l0,0c0,0.2-0.1,0.3-0.4,0.4c-0.5,0.1-1.1,0.2-1.6,0.2
		c-1.9,0-2.4-1-2.4-1.6c0-1.2,1.5-2,2.3-2.5c-0.1-0.7-0.4-1-0.9-1c-0.5,0.1-1.1,0.3-1.4,0.7c-0.4,0.5-0.5,0.7-0.7,0.7
		c-0.1,0-0.3-0.1-0.3-0.2c0-0.1,0.1-0.2,0.1-0.3c0.8-0.8,1.3-1.7,1.7-2.7L108.4,35.4z"/>
	<path d="M119,41.6c-0.2,0-0.3-0.1-0.4-0.3l0,0c0-0.2,0.2-0.4,0.3-0.4c3.2-0.4,4.5-2,4.5-3.1c0-1-0.9-1.8-2.4-1.8
		c-1,0.1-2,0.4-3,0.8c-0.5,0.2-1.1,0.5-1.6,0.8c-0.1,0-0.2,0.1-0.2,0.1c-0.2,0-0.3-0.1-0.3-0.3l0,0c0-0.2,0.1-0.3,0.3-0.4
		c0.5-0.2,1.1-0.5,1.7-0.7c1-0.5,2.2-0.8,3.3-0.8c1.9,0,3,1.1,3,2.4c-0.1,0.9-0.5,1.7-1.2,2.3C121.7,40.9,120.4,41.4,119,41.6z"/>
	<path d="M128.1,35.6c-0.3,0-1,0-1-0.4c0-0.1,0.1-0.3,0.3-0.3l0,0h0.1c0.3,0.1,0.5,0.1,0.8,0.1c0.4,0,0.7,0,1-0.1
		c0.1-0.4,0.2-0.9,0.3-1.3c0-0.1,0.2-0.3,0.3-0.2c0.1,0,0.3,0.1,0.3,0.2l0,0c-0.1,0.4-0.2,0.8-0.3,1.2c0.3-0.1,0.6-0.3,0.9-0.4
		c0,0,0.1-0.1,0.2-0.1c0.2,0,0.3,0.1,0.3,0.3l0,0c0,0.3-0.7,0.6-1.5,0.8c-0.6,1.4-1.3,2.7-2.1,3.9c-0.1,0.1-0.2,0.2-0.3,0.2
		c-0.2,0-0.3-0.1-0.3-0.3l0,0c0-0.1,0-0.2,0.1-0.2c0.8-1.1,1.5-2.3,2-3.5C128.8,35.6,128.5,35.6,128.1,35.6z M131.7,39.7
		c0-0.4,0-1,0-1.5c0-0.8,0.1-1,0.3-1c0.1,0,0.3,0.1,0.3,0.3l0,0v0.1c0,0.2-0.1,0.4-0.1,0.6v0.2c0,0.4,0,0.9,0,1.3c0,0.1,0,0.3,0,0.4
		c0.8,0.3,1.6,0.9,1.6,1.3c0,0.2-0.1,0.3-0.3,0.3l0,0c-0.1,0-0.2-0.1-0.3-0.1c-0.3-0.4-0.7-0.7-1.1-0.9v0.1c-0.2,0.8-1,1.3-1.9,1.3
		s-1.7-0.6-1.7-1.2c0-0.6,0.8-1.2,1.9-1.2c0.4,0,0.8,0.1,1.1,0.2L131.7,39.7z M130.5,40.3c-0.6,0-1.3,0.2-1.3,0.7
		c0,0.4,0.6,0.7,1.2,0.7c0.6,0,1.1-0.3,1.3-0.9c0-0.1,0-0.2,0-0.3C131.3,40.3,130.9,40.3,130.5,40.3L130.5,40.3z M134.1,36.7
		c-0.5-0.3-1.1-0.5-1.7-0.5c-0.1,0-0.2,0-0.2,0l0,0c-0.1,0-0.2-0.1-0.3-0.2l0,0c0-0.2,0.1-0.3,0.6-0.3s2,0.2,2,0.8
		c0,0.2-0.1,0.3-0.3,0.3C134.1,36.7,134.1,36.7,134.1,36.7L134.1,36.7z"/>
	<path d="M140.3,42.1c-0.7-1.3-1.5-2.6-2.4-3.7c-0.6-0.5-0.7-1.4-0.1-2c0.1-0.1,0.2-0.2,0.2-0.2c0.9-0.8,1.7-1.7,2.4-2.6
		c0.1-0.1,0.2-0.2,0.3-0.2c0.2,0,0.4,0.2,0.4,0.4c0,0.1,0,0.2-0.1,0.2c-0.8,0.9-1.6,1.8-2.5,2.6c-0.2,0.2-0.4,0.5-0.4,0.8
		s0.1,0.5,0.3,0.7c1,1.2,1.9,2.4,2.6,3.7c0,0.1,0.1,0.1,0.1,0.2c0,0.2-0.2,0.4-0.4,0.4C140.5,42.3,140.3,42.2,140.3,42.1z
		 M141.4,36.6c-0.2-0.4-0.6-0.7-0.9-1c-0.1,0-0.1-0.1-0.1-0.2c0-0.1,0.1-0.2,0.3-0.2l0,0c0.3,0,1.3,0.9,1.3,1.2
		c0,0.2-0.1,0.3-0.3,0.3C141.5,36.8,141.5,36.7,141.4,36.6z M142.5,36c-0.3-0.4-0.6-0.7-1-1c-0.1-0.1-0.1-0.2-0.1-0.3
		s0.1-0.1,0.2-0.1c0.3,0,1.3,0.8,1.3,1.2c0,0.2-0.1,0.3-0.3,0.3C142.6,36.1,142.5,36.1,142.5,36z"/>
	<path d="M145.1,40.6c-0.2,0-0.3-0.1-0.3-0.3c0-0.1,0-0.2,0.1-0.2c0.6-0.7,1.1-1.6,1.4-2.5c0-0.1,0.2-0.2,0.3-0.2
		c0.2,0,0.3,0.1,0.3,0.3l0,0c-0.3,1-0.8,2-1.4,2.8C145.3,40.5,145.2,40.6,145.1,40.6z M148.7,35.8c-0.1,1.8-0.1,3.8-0.1,5.1
		c0,0.7,0.5,0.8,1.3,0.8c1.8,0,2-0.5,2-1.5c0-0.2,0.1-0.3,0.3-0.3l0,0c0.1,0,0.4,0,0.4,0.4c0,1.7-0.9,2-2.5,2c-0.9,0-2-0.1-2-1.3
		c0-1.3,0.1-3.4,0.1-5.2c0-0.2,0.1-0.3,0.3-0.3l0,0C148.5,35.5,148.7,35.6,148.7,35.8L148.7,35.8L148.7,35.8z M150.7,34.9
		c-0.7-0.5-1.4-0.9-2.2-1.1c-0.1,0-0.2-0.1-0.2-0.2c0-0.2,0.1-0.3,0.3-0.3l0,0c0.9,0.2,1.7,0.6,2.5,1.1c0.2,0.1,0.2,0.3,0.1,0.5
		C151.1,35,150.9,35.1,150.7,34.9C150.8,34.9,150.7,34.9,150.7,34.9L150.7,34.9z M154,39.6c-0.5-0.8-1.2-1.5-2-2
		c-0.1,0-0.1-0.1-0.1-0.2c0-0.2,0.2-0.3,0.3-0.3c0.4,0,2.5,1.8,2.5,2.3c0,0.2-0.2,0.4-0.4,0.4C154.2,39.8,154.1,39.7,154,39.6z"/>
	<path d="M160.8,35.7c0,1-1.5,5.2-3,5.2c-0.9-0.2-1.6-1.1-1.4-2.1c0.1-2.3,2-4,4.3-3.9c1.8-0.2,3.4,1.2,3.6,3c0,0,0,0.1,0,0.2
		c0,2.7-3,3.6-3.4,3.6c-0.2,0-0.4-0.1-0.4-0.3l0,0c0-0.1,0.1-0.3,0.3-0.3c1.6-0.2,2.8-1.5,2.8-3c-0.1-1.5-1.4-2.7-2.9-2.7l0,0
		C160.8,35.4,160.8,35.5,160.8,35.7z M157,38.8c0,0.8,0.5,1.4,0.9,1.4c0.8,0,2.1-2.7,2.3-4.5c0-0.1,0-0.2,0.1-0.3
		C158.5,35.5,157.1,37,157,38.8z"/>
	<path d="M171.6,39.1c1.2,1.1,2.5,1.9,4,2.4c0.1,0,0.2,0.1,0.2,0.3s-0.2,0.3-0.4,0.3c-1.5-0.6-3-1.5-4.2-2.7v2.8
		c0,0.1-0.1,0.3-0.3,0.2l0,0c-0.2,0-0.3-0.1-0.3-0.2v-2.8c-1.2,1.2-2.6,2.2-4.2,2.8c-0.2,0-0.3-0.1-0.3-0.3c0-0.1,0.1-0.2,0.2-0.3
		c1.5-0.6,2.8-1.5,4-2.6h-3.7c-0.1,0-0.3-0.1-0.3-0.3l0,0c0-0.1,0.1-0.3,0.2-0.3l0,0h4v-1c0-0.2,0.2-0.3,0.3-0.3s0.2,0.1,0.3,0.3
		l0,0v1h4c0.1,0,0.3,0.1,0.2,0.3c0,0.1-0.1,0.2-0.2,0.2L171.6,39.1z M169,34.5c-0.2,1.3-1.1,2.5-2.3,3c-0.2,0-0.3-0.1-0.3-0.3
		c0-0.1,0.1-0.2,0.2-0.3c1-0.5,1.7-1.4,1.9-2.5c-0.5,0-1.1,0-1.6,0l0,0c-0.1,0-0.2-0.1-0.3-0.2l0,0c0-0.1,0.1-0.3,0.3-0.3l0,0
		c0.6,0,1.2,0,1.7,0c0-0.3,0.1-0.6,0.1-0.9c0-0.2,0.1-0.3,0.3-0.3s0.3,0.1,0.3,0.3l0,0c0,0.3,0,0.6-0.1,0.9c0.3,0,0.5,0,0.8,0
		c0.6,0,1,0.3,1,0.9c0,0.5-0.1,1-0.3,1.5s-0.7,0.9-1.2,0.9c-0.3,0-0.6-0.1-0.8-0.1c-0.1,0-0.2-0.1-0.2-0.2c0-0.2,0.1-0.3,0.3-0.3
		h0.1c0.2,0.1,0.4,0.1,0.6,0.1c0.3,0,0.6-0.2,0.7-0.5c0.2-0.4,0.3-0.8,0.3-1.2c0-0.3-0.2-0.5-0.6-0.5C169.9,34.5,169,34.5,169,34.5z
		 M173.7,37.2c-0.3,0-0.6,0-0.9,0c-0.5,0-0.9-0.3-1-0.8l0,0c0-0.2,0-0.6,0-1s0-0.8,0-1c0-0.5,0.4-0.8,0.9-0.8c0.3,0,0.6,0,0.9,0
		s0.6,0,0.9,0c0.6,0,0.9,0.4,1,0.7c0,0.3,0,0.8,0,1.3C175.4,37,175.4,37.2,173.7,37.2L173.7,37.2z M173.5,34.1c-0.9,0-1.2,0-1.2,0.5
		c0,0.2,0,0.5,0,0.8s0,0.6,0,0.8c0,0.4,0.3,0.5,1.2,0.5s1.3,0,1.3-0.5c0-0.1,0-0.5,0-0.8s0-0.7,0-0.8
		C174.8,34.1,174.5,34.1,173.5,34.1L173.5,34.1z"/>
	<path d="M179.2,41.1c-0.4-0.8-0.6-1.7-0.6-2.6c0-0.9,0.2-1.9,0.2-2.8c0.1-0.7,0.1-1,0.1-1.5c0-0.2,0.1-0.3,0.3-0.3l0,0
		c0.2,0,0.3,0.1,0.3,0.3l0,0c0,0.3-0.1,1.2-0.2,1.6c-0.1,0.9-0.2,1.7-0.3,2.6c0,0.1,0,1.2,0.2,1.2c0,0,0.1-0.1,0.1-0.2l0.5-1
		c0-0.1,0.1-0.2,0.2-0.2c0.1,0,0.3,0.1,0.3,0.3v0.1c-0.3,0.7-0.5,1.4-0.6,2.1c0,0.1,0,0.2,0,0.3c0,0.2-0.1,0.3-0.3,0.4
		C179.4,41.3,179.2,41.2,179.2,41.1L179.2,41.1z M184.5,35.7c0.4-0.1,0.7-0.2,1-0.2h0.1c0.2,0,0.3,0.1,0.3,0.3
		c0,0.3-0.2,0.3-1.4,0.5c0,0.4,0,0.8,0,1.3c0,0.1,0,0.3,0,0.4c0.1,1.8-0.7,3.5-2.2,4.5c-0.1,0.1-0.2,0.1-0.3,0.1
		c-0.2,0-0.3-0.1-0.3-0.3l0,0c0-0.1,0.1-0.2,0.2-0.3c1.4-0.9,2.2-2.6,2-4.3c0-0.2,0-0.3,0-1.5c-0.5,0.1-1,0.1-1.6,0.1
		c-0.8,0-0.9-0.1-0.9-0.4c0-0.2,0.1-0.3,0.3-0.3l0,0h0.1c0.2,0,0.4,0.1,0.7,0.1c0.5,0,0.9-0.1,1.4-0.1v-0.3c0-0.7-0.1-0.9-0.1-1.4
		l0,0c0-0.2,0.1-0.3,0.3-0.3l0,0c0.3,0,0.4,0.2,0.4,0.9c0,0.2,0,0.5,0,0.8V35.7z"/>
	<path d="M189.4,37.4c-0.4,0.8-0.8,1.5-1.3,2.1c-0.1,0.1-0.1,0.1-0.2,0.1c-0.2,0-0.3-0.1-0.3-0.3c0-0.1,0-0.1,0.1-0.2
		c0.8-0.9,1.4-1.8,1.8-2.9v-0.4h-1.2c-0.1,0-0.3-0.1-0.3-0.3l0,0c0-0.1,0.1-0.3,0.2-0.3l0,0h1.2V33c0-0.2,0.1-0.3,0.3-0.3l0,0
		c0.1,0,0.3,0.1,0.3,0.2l0,0v2.2h1c0.1,0,0.2,0.1,0.3,0.2l0,0c0,0.1-0.1,0.3-0.2,0.3l0,0h-1c0,0.5,0,1,0,1.1c0,0.4,0,5.3,0,5.3
		c0,0.1-0.1,0.3-0.3,0.3l0,0c-0.2,0-0.3-0.1-0.3-0.3L189.4,37.4z M190.9,38.5c-0.2-0.3-0.5-0.6-0.8-0.9l-0.1-0.1
		c0-0.1,0.1-0.2,0.3-0.2c0.1,0,1.1,0.7,1.1,1c0,0.1-0.1,0.3-0.3,0.3C191,38.6,190.9,38.6,190.9,38.5z M195.4,35.4
		c0.5,0.7,1.2,1.3,2.1,1.6c0.1,0,0.1,0.1,0.1,0.2c0,0.2-0.1,0.3-0.3,0.3c-1-0.4-1.9-1.2-2.4-2.2h-1.3c-0.5,1-1.3,1.7-2.2,2.3
		c-0.2,0-0.3-0.1-0.3-0.3c0-0.1,0.1-0.2,0.1-0.2c0.7-0.4,1.3-1,1.8-1.8h-1.4c-0.1,0-0.2-0.1-0.2-0.2l0,0c0-0.1,0.1-0.2,0.2-0.2l0,0
		h1.6c0.2-0.3,0.3-0.6,0.4-0.9c-0.3,0-0.4,0-1.6,0c-0.1,0-0.2-0.1-0.2-0.2l0,0c0-0.1,0.1-0.2,0.2-0.2l0,0l0,0c0.2,0,0.5,0,0.8,0
		c1.1,0,2.2-0.1,3.3-0.3c0,0,0,0,0.1,0c0.2,0,0.3,0.1,0.3,0.3s-0.1,0.4-2.2,0.5c-0.1,0.3-0.2,0.6-0.4,0.9h3.2c0.1,0,0.2,0.1,0.2,0.2
		l0,0c0,0.1-0.1,0.2-0.2,0.2l0,0L195.4,35.4z M191.6,39.4c0-0.5,0.3-0.9,1-0.9c0.6,0,1.3,0,1.9,0c0.5,0,1,0,1.4,0c0.7,0,1,0.4,1,0.9
		V41c0,0.1,0,0.3,0,0.6l0,0c0,0.4-0.2,0.9-1.1,0.9c-0.5,0-0.9,0-0.9-0.3c0-0.1,0.1-0.2,0.2-0.3l0,0h0.1c0.2,0,0.5,0.1,0.7,0.1
		c0.3,0,0.5-0.1,0.5-0.5v-2c0-0.3-0.2-0.6-0.5-0.6c0,0,0,0-0.1,0c-0.5,0-1,0-1.6,0s-1,0-1.5,0c-0.3,0-0.6,0.2-0.6,0.5c0,0,0,0,0,0.1
		c0,0.4,0,0.9,0,1.4s0,1,0,1.5c0,0.1-0.1,0.2-0.2,0.3l0,0c-0.1,0-0.3-0.1-0.3-0.3l0,0L191.6,39.4z M194.2,37.9
		c-1.3,0-1.4-0.1-1.4-0.8s0.1-0.8,1.5-0.8s1.4,0.1,1.4,0.9C195.7,37.9,195.5,37.9,194.2,37.9z M194.3,41.3c-0.2,0-0.4,0-0.6,0
		c-0.7,0-0.7-0.3-0.7-1s0.2-0.8,1.5-0.8c1.2,0,1.3,0.1,1.3,0.9c0,0.5,0,0.9-0.7,0.9C194.7,41.3,194.5,41.3,194.3,41.3L194.3,41.3z
		 M193.3,37.2c0,0.2,0.1,0.3,1,0.3c1,0,1,0,1-0.5c0-0.3,0-0.4-1-0.4c-0.8,0-1,0-1,0.2V37.2z M194.3,40.9c0.9,0,0.9,0,0.9-0.6
		c0-0.4-0.1-0.4-0.9-0.4c-0.2,0-0.3,0-0.5,0c-0.4,0-0.4,0.1-0.4,0.7C193.4,40.8,193.4,40.9,194.3,40.9L194.3,40.9z"/>
</g>
<g id="半円">
	<path class="st1" d="M67.1,40.6c-1.1-3.1-1.4-6.5-1-9.8c0.4-3.4,1.6-6.6,3.4-9.5s4.2-5.5,7-7.4c5.8-4,12.9-5.5,19.8-4
		c3.4,0.7,6.6,2.1,9.4,4.1s5.1,4.5,6.8,7.4c1.7,2.9,2.7,6.1,2.9,9.4c-2-5.9-6-11-11.4-14.2c-10.7-6.3-24.5-3.5-31.9,6.5
		C68.4,28.1,66.6,34.4,67.1,40.6z"/>
	<path class="st1" d="M17.7,41.8c-0.4-3.3-0.1-6.6,1-9.7c1.1-3.2,2.9-6.2,5.2-8.6c2.3-2.5,5.2-4.5,8.4-5.9s6.6-2.1,10.1-2.1l2.6,0.1
		c0.9,0.1,1.7,0.3,2.6,0.4c0.8,0.2,1.7,0.4,2.5,0.7c0.8,0.3,1.6,0.6,2.4,0.9c3.1,1.4,5.9,3.5,8.2,6c4.5,5,6.7,11.6,6.4,18.2H67
		c-0.2-3.2-1-6.3-2.4-9.1c-1.4-2.8-3.3-5.2-5.7-7.2c-4.6-3.9-10.4-6-16.4-6.1c-6,0-11.8,2.2-16.3,6.2C21.4,29.9,18.4,35.6,17.7,41.8
		z"/>
</g>
<g id="点">
	<path class="st1" d="M39.7,10.5c0.8,1.5,2.6,2,4.1,1.2s2-2.6,1.2-4.1s-2.6-2-4.1-1.2l0,0C39.4,7.3,38.9,9.1,39.7,10.5L39.7,10.5z"
		/>
	<path class="st2" d="M87.1,4.5c0.8,1.5,2.6,2,4.1,1.2s2-2.6,1.2-4.1s-2.6-2-4.1-1.2l0,0C86.8,1.2,86.3,3,87.1,4.5z"/>
</g>
<g>
	<path class="st3" d="M216.8,73.3c-3,0.9-4.3-2.7-1.4-3.4c7.1-1.9,11.7-6.3,13.3-10.8c0.4-1,0.2-1.5-1.2-1.6
		c-3.7-0.1-10.4,0-14.2,0.2c-2.6,0.1-2.9-3.3-0.1-3.4c4.6-0.1,10.7-0.1,15.6-0.1c3.6,0,5.4,2.1,3.9,5.6
		C230.1,65.8,225.7,70.6,216.8,73.3z M228.2,50.9c-3.4,0-8.4,0.1-12.2,0c-2.4-0.1-2.5-3.4,0.3-3.3c3.5,0,8.5,0,12.1,0
		c1.2,0,1.9,0.8,1.9,1.7C230.3,50.1,229.7,50.9,228.2,50.9z"/>
	<path class="st3" d="M242.3,68.7c-0.5-0.7-0.5-1.9,0.5-2.6c1.7-1.1,3.9-3.5,4.8-5.1c1-1.8,4-0.4,2.8,1.7c-0.9,1.5-3.2,4.9-5.5,6.4
		C243.9,69.8,242.8,69.4,242.3,68.7z M245.5,57.3c-2.4,0.1-2.7-3.2-0.1-3.3c2.8-0.1,5.8-0.2,8.7-0.3c0-1.9,0-3.5,0-4.5
		c-0.1-2.7,3.5-2.4,3.5-0.1c0,1.1-0.1,2.8-0.1,4.6c2.8,0,5.5,0,8.2,0s2.5,3.5-0.1,3.4c-2.7-0.1-5.4-0.1-8.1-0.1c0,2.9,0,6,0.1,8.5
		c0,1.2,0,1.7,0,2.7c0,2.8-1.7,5-6.9,4.1c-3.2-0.6-1.8-4.3,0.4-3.6c1.5,0.5,3.1,0.7,3.1-1.3c0-2.6,0-6.7,0-10.4
		C251.3,57.1,248.4,57.2,245.5,57.3z M265.9,67.8c-1.1-1.8-3.7-4-5.3-4.9c-1.8-1,0-3.8,2-2.6c1.5,0.9,4.8,3,6.2,5.3
		c0.6,1,0.1,2.1-0.6,2.6S266.5,68.8,265.9,67.8z M265.1,52.1c-2.1,0-3.7-1.7-3.7-3.7s1.7-3.7,3.7-3.7s3.7,1.7,3.7,3.7
		S267.2,52.1,265.1,52.1z M265.1,46.6c-1,0-1.8,0.8-1.8,1.8s0.8,1.8,1.8,1.8s1.8-0.8,1.8-1.8S266.1,46.6,265.1,46.6z"/>
	<path class="st3" d="M276.7,68.2c5.3-2.4,8.5-7.9,8.2-14.8c-0.1-2.8,3.6-2.6,3.7-0.3c0.3,6.8-2.8,14.3-9.9,18.2
		C276,72.9,274,69.4,276.7,68.2z M295.6,69.5c-2.3,1.2-4.9,0.2-4.6-2.9c0.3-3.2,0.5-11.8,0.5-13.9c0-2.6,3.6-2.6,3.6,0
		c0,1.4-0.4,10.9-0.4,12.1c0,0.8,0.4,0.9,1.1,0.5c3.1-1.8,5.9-5.1,8-9c1.3-2.4,4.5-0.4,3.3,1.8C304.5,62.5,300.5,67,295.6,69.5z"/>
	<path class="st3" d="M342.8,67.2l-10.2-0.1c3.6,2.3,7.2,3.4,11.2,4.4c0.8,0.2,1.2,0.8,1.2,1.4c0,0.9-0.8,1.9-1.8,1.9
		c-0.6,0-6.4-1.7-12.2-5.7l0.1,5.2l0,0c0,0.9-0.8,1.4-1.7,1.4c-0.8,0-1.7-0.4-1.7-1.4l0,0v-5.1c-4.9,3.6-11.3,5.9-12.3,5.9
		s-1.7-0.8-1.7-1.6c0-0.6,0.4-1.2,1.3-1.4c4.2-1.2,7.5-2.5,10.9-4.9l-9.9,0.1l0,0c-1,0-1.5-0.7-1.5-1.4c0-0.7,0.5-1.4,1.5-1.4h11.6
		v-0.8v-0.1c0-0.4,0.2-0.8,0.4-1c-3.2,0-4.7-0.7-4.8-2.5c0-0.8,0-1.8,0-2.9c0-1,0-2.1,0-2.8c0-1.2,1-2.2,2.8-2.3c0.3,0,0.8,0,1.3,0
		c0.1-0.4,0.2-0.9,0.4-1.6c0.1-0.6,0.8-0.9,1.5-0.9c0.9,0,1.8,0.5,1.8,1.3c0,0.1-0.1,0.8-0.3,1.3c2.4,0,4.5,0.3,4.6,2.3
		c0,1.2,0.1,2.4,0.1,3.6c0,3.3,0,4.6-4.9,4.6c0.3,0.3,0.5,0.6,0.5,1.1v0.8h11.8c1,0,1.5,0.7,1.5,1.4
		C344.2,66.4,343.7,67.2,342.8,67.2L342.8,67.2z M335.1,48.8v1.1c0,0.9-0.8,1.3-1.6,1.3c-0.8,0-1.6-0.5-1.6-1.3v-1.1h-5.3v1.1
		c0,0.9-0.8,1.3-1.6,1.3c-0.8,0-1.6-0.5-1.6-1.3v-1.1h-7.6c-1,0-1.4-0.7-1.4-1.4s0.5-1.4,1.4-1.4h7.6v-1.5c0-0.8,0.8-1.2,1.6-1.2
		c0.8,0,1.6,0.4,1.6,1.2V46h5.3v-1.5c0-0.8,0.8-1.2,1.6-1.2c0.8,0,1.6,0.4,1.6,1.2V46h7.9c0.9,0,1.4,0.7,1.4,1.4s-0.5,1.4-1.4,1.4
		H335.1z M316,62.6c-0.9,0-1.4-0.8-1.4-1.6c0-0.6,0.3-1.2,1-1.4c2.3-0.8,3.4-1.1,5.3-2.3c0.3-0.1,0.5-0.2,0.7-0.2
		c0.7,0,1.2,0.7,1.2,1.4c0,0.4-0.2,0.9-0.6,1.2C319.2,61.8,316.4,62.6,316,62.6z M320.1,55.7c-1.2-1-2.9-1.6-3.6-2
		c-0.5-0.3-0.8-0.6-0.8-1.1c0-0.8,0.8-1.6,1.6-1.6c1,0,3.8,1.5,4.6,2.2c0.4,0.4,0.6,0.8,0.6,1.2c0,0.9-0.7,1.7-1.5,1.7
		C320.7,56,320.4,55.9,320.1,55.7z M332.5,56c0-0.4,0-0.8,0-1.2c0-0.8-0.2-0.8-3-0.8c-0.9,0-1.8,0-2.1,0c-1.1,0.1-1.1,0.6-1.1,2
		H332.5z M326.2,58.2c0,0.5,0,1,0,1.3c0.1,0.8,0.8,0.8,3.2,0.8c0.9,0,1.7,0,2.1,0c1-0.1,1-0.8,1-2.1H326.2z M337.4,56.2
		c-0.9,0-1.5-0.8-1.5-1.5c0-0.4,0.2-0.8,0.7-1c1.1-0.5,2.4-1.4,3.6-2.4c0.4-0.4,0.8-0.5,1.1-0.5c0.9,0,1.6,0.8,1.6,1.7
		c0,0.4-0.2,0.9-0.6,1.3C340.6,54.9,337.9,56.2,337.4,56.2z M340.9,61.9c-1.2-1-2.4-1.8-3.6-2.3c-0.6-0.3-0.9-0.7-0.9-1.2
		c0-0.7,0.6-1.4,1.6-1.4c1.3,0,4.2,1.7,4.8,2.2c0.5,0.4,0.8,1,0.8,1.5c0,0.9-0.7,1.7-1.5,1.7C341.7,62.4,341.3,62.2,340.9,61.9z"/>
	<path class="st3" d="M357.9,55.5c2.2,0,6,0,9.7,0s7.2,0,8.8,0c2.4,0,4.1,1.4,4.2,3.8c0,0.4,0,0.8,0,1.3c0,8.3-1.4,14.2-8.6,14.2
		c-1.2,0-2.4-0.1-3.6-0.5c-0.8-0.2-1.2-0.9-1.2-1.7c0-0.9,0.6-1.8,1.7-1.8c0.2,0,0.4,0,0.5,0.1c1,0.3,2,0.4,2.8,0.4
		c3.2,0,4.9-1.8,4.9-10.5c0-1.5,0-2.6-1.6-2.6c-0.8,0-2.3,0-4.1,0c-4.4,0-10.6,0-13.6,0c-0.3,5.7-1.3,11.4-4.2,15.2
		c-0.5,0.7-1.2,0.9-1.8,0.9c-0.9,0-1.7-0.6-1.7-1.5c0-0.4,0.1-0.8,0.4-1.2c3.4-4.4,4-10.7,4-16.8c0-2.4-0.1-4.8-0.1-7.1v-0.1
		c0-1.8,1.2-3.2,3.6-3.2c2.3-0.1,5.1-0.1,7.9-0.1s5.7,0,8,0.1c3.9,0.1,4,2,4,4.7c0,1.6,0,3.9-4.4,4c-3.2,0.1-6.8,0.1-10.7,0.1
		c-1.5,0-3.1,0-4.8,0L357.9,55.5L357.9,55.5z M357.9,50.3c2.4,0,4.7,0,6.9,0c3.1,0,5.9,0,8.2-0.1c0.9,0,1.2-0.5,1.3-0.9
		c0,0,0,0,0-1.2c0-0.8-0.1-0.9-7.6-0.9c-2.6,0-5.2,0-7.3,0.1c-0.9,0-1.4,0.5-1.4,1.3v1.7H357.9z M359.1,64.7c0-0.5,0-1,0-1.7
		c0-1.3,1-2.6,2.8-2.7c0.8,0,2.2-0.1,3.5-0.1c1.7,0,3.4,0,4.5,0.1c1.4,0,3,1,3.1,2.5c0,0.7,0.1,1.2,0.1,1.7s0,1-0.1,1.7
		c-0.1,1.6-1.4,3-3.2,3.1c-0.9,0-2.4,0.1-3.9,0.1s-3,0-3.9-0.1c-1.7-0.1-2.8-1.5-2.8-3C359.2,65.6,359.1,65.2,359.1,64.7z
		 M368.8,62.9c-0.6,0-1.7,0-2.8,0c-1,0-2.1,0-2.7,0c-0.8,0-1,0.4-1,1.8c0,1.7,0,1.7,4.1,1.7c3.3,0,3.6-0.1,3.6-1.7
		C369.9,63.9,369.9,63,368.8,62.9z"/>
</g>
</svg>
